<?xml version="1.0" encoding="utf-8"?>
<!-- Generator: Adobe Illustrator 19.2.0, SVG Export Plug-In . SVG Version: 6.00 Build 0)  -->
<svg version="1.1" id="Layer_1" xmlns="http://www.w3.org/2000/svg" xmlns:xlink="http://www.w3.org/1999/xlink" x="0px" y="0px"
	 viewBox="0 0 271.3 130.5" style="enable-background:new 0 0 271.3 130.5;" xml:space="preserve">
<style type="text/css">
	.st0{fill:none;stroke:#CCCCCC;stroke-width:2;stroke-miterlimit:10;}
	.st1{fill:#CCCCCC;}
	.st2{fill:none;}
</style>
<title>logo</title>
<g id="Logo">
	<path class="st0" d="M13.7,46.8c-1.4,1.8-1.7,4.2-0.9,6.4c0.5,2.1,1.8,3.1,2.8,4.2c0.8,0.6,1.5,1.3,2.1,2c0.2,0.4,0.3,0.8,0.2,1.2
		c0.1,0.1,0.3,0.2,0.5,0.3c2.6-2.3,4.6,2.7,5.8,6.3c0.5,3.4-1.4,3-1.5,3.2s0,0.5-0.1,0.7c0.6,0.3,1.1,0.8,1.3,1.5
		c0.3,1.6,0.8,3.1,1.1,4.3c0.6,2.6,2.4,4.8,4.8,6c1,0.5,2.1,0.8,3.2,0.9c0,0-5.6-0.4-6.9-1.7c-1.9-2-3.2-4.4-3.7-7.1
		c-0.5-2.5-0.5-2.9-1.5-3.4c-0.1-0.3-0.1-0.5-0.1-0.8c1.4-0.1,1.7-1.7,1.4-3c-0.5-1.9-3-8.6-5.4-5.9c-0.2-0.1-0.4-0.2-0.6-0.4
		c0.6-1.5-3.4-3.2-4.9-7.4c-0.5-1.9-0.1-4,1-5.7C12.7,47.9,13.2,47.3,13.7,46.8z"/>
	<path class="st1" d="M25.6,61.6c0,0-0.1,1,0.8,0.7c0.5-0.4-0.6-1.5-1.4-1.1s-1.1,1.4,0.7,4.5s1.8,3.3,1.5,4.4c-0.3,0-0.6,0-0.9-0.1
		c0.1-0.4,0-0.8-0.3-1c-0.2-0.2-0.6,0-0.7,0.5c0.2,0.7,0.9,1.1,1.6,0.9c0.3-0.1,0.5-0.2,0.7-0.4c0.5-0.5,0.6-2.3-0.9-4.3
		c-0.7-1-1.3-2.1-1.8-3.3c-0.1-0.3-0.1-0.6,0-0.9L25.6,61.6z"/>
	<polyline class="st1" points="7.8,32 25.7,58.8 29.4,56.3 10.1,30.8 	"/>
	<path class="st1" d="M29.9,58.7c0,0,0.8,0.4,0.3,0.8s-0.9-1.2-0.4-1.5c0.5-0.1,1,0.1,1.3,0.5c0.2,0.2,3.7,5.4,4.7,5.1
		c0-0.3,0-0.6,0-0.9c-0.4-0.1-1.1-0.9-0.7-1s1.1,0.5,0.9,1.8c0,0.4-0.6,0.4-1.2,0s-4.1-5.2-4.7-5.5C30.1,58.2,29.9,58.7,29.9,58.7z"
		/>
	<path class="st1" d="M42,77.6c0,0-3.3-4.3-4.5-6.1c-0.4-0.6-0.1-2.8-0.1-2.8l-1.5-1.8l-3.5,2.8l1.2,1.7c0.9,0.3,1.8,0.7,2.6,1.2
		c1.3,1.4,4.8,6.3,4.8,6.3"/>
	<path class="st0" d="M13.7,46.8c0.7-0.8,1.5-1.4,2.4-1.9c0,0-5.1-8.1-7.3-11.2c-0.5-0.4-1.2-0.5-1.8-0.1c-1.4-2.5-3.2-2.6-5-4.4
		C0,25.9,1.7,24,1.7,24L3,23.5c1.4,0.6,2.2,2,2.2,3.5c0.1,0.6-0.3,0.4-0.3,0.4l-0.5,0.3c0,0,2.8,0,5.2,3.1s9.9,12.4,9.9,12.4
		c2.6-0.6,7.6,0,9.3,6c0.8,2.2,1.2,2.6,2.1,3v0.4c-0.9,0.1-1.5,1.1-0.4,3.1c1.2,1.7,4.9,6.7,6.1,3.9c0.2,0,0.5,0.1,0.7,0.2
		c0.2,0.9-0.2,1,2.2,2.8c1.2,1,8.2,6.5,3.3,13.8c-1.7,2.6-5.7,7.5-9.9,7.3"/>
	<path class="st1" d="M3.9,29.4l-1.1,0.2c0,0-1.1-1.1-2.2,0.9C0,31.7,3,32.1,2.8,30.8c0.3-0.2,1.3-0.6,1.3-0.6L3.9,29.4z"/>
	<path class="st1" d="M6.3,31.1c-0.5,0.2-1,0.4-1.5,0.5C4.2,30.4,2.6,31.5,3,33c0.5,1.5,2.7,0.6,2.2-0.4C5.6,32.5,6.6,32,6.6,32"/>
	<path class="st1" d="M5.8,27.9l0.3-0.2c0,0,0-1,0.7-1.1c0.7-0.1,1.3,0.4,1.4,1c0,0.3,0,0.5-0.1,0.8C8,29.2,5.8,27.9,5.8,27.9z"/>
	<path class="st1" d="M8.2,29l0.5-0.3c0-0.5,0.4-1,0.9-1.1c0.6-0.1,1.1,0.3,1.2,0.8c0.1,0.7-0.2,1.4-0.8,1.7c-0.4,0.2-0.8,0-1-0.4
		c0,0,0-0.1,0-0.1H8.8"/>
	<path class="st0" d="M88.8,39c-0.3,0.1-0.4,0.1-0.6,0.1c-0.1-0.2-0.2-0.4-0.3-0.6c0.4-0.6,0.3-1.4-0.2-1.9C86.5,35,84.6,31,86.6,28
		c1.2-1.8,3-3.2,5.1-3.8c0,0-8,2.7-4.8,10c0.6,1.3,2.3,3.3,1.6,4.3c0.1,0.2,0.2,0.5,0.2,0.7c0.7-0.6,1.7-0.5,2.2,0.2
		c0.1,0.2,0.3,0.4,0.3,0.6c0.6,1.8,2.5,8.4-1.5,8.2c-0.1,0.2-0.2,0.4-0.3,0.7c0.5,0.6,0.9,0.5,0.5,3.2s0.1,8.1,4.2,9.6
		s13.5-0.3,16.1-5.4s1.1-8-1.5-11c-0.6-0.5-0.9-1.4-0.7-2.2c-0.1-0.2-0.3-0.3-0.4-0.5c-0.8,0.7-1.9,0.6-2.6-0.1
		c-0.1-0.1-0.1-0.2-0.2-0.2c-1.2-1.5-4.2-7.8-0.8-7.4c0.1-0.2,0.1-0.5,0.1-0.7c-0.5-0.5-0.8-0.7-0.8-2.5c0-1.8-0.6-8.4-6.9-8.2h-1.2
		c0,0-5-14.6-5.2-15.3C89.6,7.1,88.9,6,88.2,5c0.5-0.1,0.6,0,0.4-0.8c-0.4-1.1-0.9-2.1-1.4-3L86,1.4c-0.6,1.2-0.6,2.6-0.2,3.9
		c0.8,1.9,1.4,3.9,1.9,5.9c1.2,0.1,1.2,1.6,2.2,5.8l1.8,7.2"/>
	<path class="st0" d="M89.8,38.9c0.7,0.3,1.1,0.9,1.2,1.6c0.4,1.4,1.9,7.6-1.7,7.4L89,48.4c1.4,0.8,0,3.7,0.4,6.7
		c0.3,2.1,1.4,4,3,5.4"/>
	<path class="st1" d="M93.4,48.9c0.2-0.2,0.2-0.6,0-0.8c0,0-0.1,0-0.1-0.1c-0.6-0.5-0.9,0.7-0.6,0.9c0.5,0.6,1.4,0.8,2,0.3
		c0.2-0.1,0.3-0.3,0.5-0.5c1.1-1.5-1.2-5.7-0.5-7.4c0.2,0,0.5,0.1,0.7,0.1c-0.1,0.6-0.4,0.8,0.3,0.8s0.2-1.1-0.6-1.1
		s-1.6,0.4-1.2,2.1s1.3,5.1,0.3,6.1C93.9,49.3,93.6,49.2,93.4,48.9z"/>
	<path class="st1" d="M100.9,39.6c0,0-0.2,0.3-0.4,0.5c0.2,0.2,0.3,0.5,0.2,0.8c-0.2,0.3-1-0.5-0.2-1.2s1.5,0.8,1.6,0.9
		c1.3,2.6,1,4.3,2.9,5.5l0.4-0.9c-0.4-0.1-0.9-1-0.1-1c0.6,0.1,0.6,1.3,0.1,1.8c-0.3,0.4-0.9,0.4-1.3,0.1c0,0,0,0-0.1-0.1
		C102.4,44.4,102.3,40.1,100.9,39.6z"/>
	<path class="st1" d="M103.7,61.2c0,0-2-6.8-4.2-8.2c-0.4-0.8-0.7-1.6-0.9-2.4l4.3-1.3l0.3,2.9c0.1,3,0.7,5.9,1.8,8.6L103.7,61.2z"
		/>
	<polygon class="st1" points="88.3,10.5 95.7,39.4 99.9,38.1 90.9,10 	"/>
	<path class="st1" d="M86.7,6.7L85.2,7c-0.1-0.3-0.3-0.6-0.7-0.6c-0.7,0-1.2,0.4-1.3,1.1c0,0.7,0.7,1.3,1.4,1.2
		c0.2,0,0.4-0.1,0.6-0.2c0.3-0.2,0.1-0.5,0.1-0.8c0.4,0,1.7-0.2,1.7-0.2"/>
	<path class="st1" d="M87.6,9.2l0.3,0.7l-1.7,0.4c0,0.5-0.3,0.9-0.8,1c-0.1,0-0.3,0-0.4-0.1c-0.6-0.1-1.1-0.7-1-1.3
		c0-0.2,0.1-0.4,0.2-0.5c0.3-0.3,1.2-0.9,1.6-0.1C86,9.7,87.6,9.2,87.6,9.2z"/>
	<path class="st1" d="M89.8,7.6l1.4-0.3c-0.1-0.3,0.1-0.7,0.4-0.8c0.1,0,0.3,0,0.4,0c0.9,0.2,1.8,0.9,0.8,1.8
		c-0.2,0.4-0.8,0.5-1.1,0.3c-0.2-0.1-0.3-0.3-0.4-0.5l-1.2,0.2"/>
	<path class="st1" d="M88.5,5.5l1.4-0.3c0-0.3,0.1-0.5,0.4-0.5c0,0,0.1,0,0.1,0c0.5,0,1.4-0.3,1.5,0.8c0,0.6-1.5,1.1-1.8,0.5
		c-0.4,0-0.8,0.1-1.1,0.2"/>
	<path class="st0" d="M178.9,24.9c0,0-9.4-3.4-10,7.3c-0.2,2,0.2,2-1.3,2.9c-0.1,0.2-0.1,0.4-0.1,0.5c0.8,0,2.4,0.6,1.1,3.5
		s-3.6,6.9-5.6,4.7c-0.3,0.1-0.5,0.2-0.8,0.3c0.2,0.9-0.2,1.7-0.8,2.3c-1,1.1-7.8,6.9-1.5,13.6c6.5,5.6,19.8,8.2,20.2-6.7
		c0,0,0-2,0.8-2.5c0-0.2,0-0.4,0-0.5c-1.1,0.1-2-0.7-2.1-1.7c0,0,0,0,0-0.1c-0.4-1.8,1.3-9.9,4-7c0.3-0.4,0.3-0.3,0.5-0.6
		c-0.3-0.7-0.1-1.5,0.4-2c0.6-0.7,6.9-7.7-1.2-12.6l4.7-14.9c0.4-1.2,0.5-2.4,0.6-3.6c-0.1-1.2-0.2-2.2,0.4-1.7
		c0.6-0.2,1.1-0.9,1.2-4.1c-0.4-0.2-0.8-0.4-1.3-0.5c-0.2,0-1.6-0.8-3.1,3.7c-0.9,4.6-0.7,4.6-1.4,6c-0.1,0.4,0.1,0.8,0.4,1
		L178.9,24.9z"/>
	<path class="st0" d="M178.9,24.9c0,0-4.4-2.4-8.3,0.5c-3.1,2.4-2.6,5.4-2.8,7c-0.2,1.6-0.9,1.8-1.1,1.8c0,0.4-0.1,0.5-0.1,0.7
		c0.4,0,0.9,0,0.9,0.6"/>
	<path class="st0" d="M168.1,35.7c0,0,0.9,1.5-1.9,5.8c-2,3.5-3.9,1.5-3.9,1.5l-0.5,0.3c0.1,1.4-0.3,1.2-1.9,3.1s-4.4,5.7-2.4,9.3"
		/>
	<path class="st2" d="M177.4,51c0,0-0.5,1.3-0.8,0.5"/>
	<path class="st1" d="M176.6,51.4c0.3-0.1,0.6-0.3,0.8-0.5c0,0-0.4-1.2,0.5-0.9c0,0,0.6,0.8-1,1.5c-0.8,0.3-1.4-1.1-0.7-3.5
		s1.4-4.2,1-4.6l-0.6,0.2c0,0,0.1,0.9-0.6,0.6s0.4-1.3,1-1.2c0.4,0.2,0.6,0.6,0.7,1C177.9,45.4,175.5,50.1,176.6,51.4z"/>
	<path class="st1" d="M165.9,63.5c0.2-1.1,3.1-7,2-8.8c-0.1-1.2,0.2-2.4,0.8-3.5c0.6,0.3,4.2,1.8,4.2,1.8c-0.2,0.7-0.5,1.4-0.9,2.1
		c-0.8,0.9-1,0-2.1,2.3s-2.6,6.6-2.6,6.6S166.5,63.1,165.9,63.5"/>
	<polygon class="st1" points="173.1,40 177.6,41.6 187.1,12 184.6,10.9 	"/>
	<path class="st1" d="M187.6,9l1.1,0.5c0,0,0.5-0.7,1-0.2s1.5,1.3,0.2,2.1c-0.4,0.4-1.1,0.3-1.4-0.1c-0.2-0.2-0.3-0.6-0.2-0.9
		l-0.9-0.4"/>
	<path class="st1" d="M187.6,6.3l1.3,0.5c0.1-0.3,0.5-0.4,0.7-0.3c0.4,0.3,1.6,0.9,0.9,1.7s-2.1-0.1-2.1-0.4s0-0.4-0.8-0.7"/>
	<path class="st1" d="M185.2,6.3L184,5.6c0.2-0.4-0.1-0.9-0.5-1c-0.1,0-0.1,0-0.2,0c-0.9-0.1-1.5-0.1-1.7,1c0,0.6,0.5,1.1,1.1,1.2
		c0.3,0,0.6-0.1,0.8-0.3c0.6,0.2,1.6,0.6,1.6,0.6"/>
	<path class="st1" d="M184.6,9.2l-1.4-0.7c0.1-0.5-0.3-1.1-0.8-1.1c0,0,0,0,0,0c-0.7-0.1-1.3,0.3-1.4,1c0,0.2,0.3,1.9,1.6,1.3
		c0.4-0.6,1.4,0.1,2,0.5"/>
	<path class="st1" d="M171.4,41.5c-0.1-0.2-0.3-0.4-0.4-0.5c-1.7,0.9-1.4,5.8-4.9,6.7c-1.9-0.5-1.1-2.7-0.6-2.3s0.6,0.8-0.2,1.2
		c0.1,0.3,0.3,0.6,0.5,0.8c2.7-1.4,2.7-5.7,4.8-6.6c1.5-0.3,1.4,1.8,0.9,1.6C170.6,42.1,171.4,41.5,171.4,41.5z"/>
	<path class="st0" d="M255.4,48.4c0,0-6.1-5.5-10.7,2.9c-1,2.3-1,3.1-2.2,3.3c0,0.2-0.1,0.3-0.1,0.4c0.3,0.1,2.1,1.3,0,3.8
		s-5.1,5.7-6.6,2.8c-0.2,0.1-0.5,0.2-0.7,0.2c0,0.5,0,1.1-1.4,1.9c-1.4,0.9-8.8,4.3-5.4,12.2s16.2,12.8,20,1.8c0,0,0.5-3.4,2-4.1
		c0.1-0.2,0.1-0.5,0.2-0.8c-0.2,0-2.1-0.6-1.1-3.3c0.8-2.2,3.8-7.3,5.4-4.7l0.6-0.3c-0.3-0.5,0.5-1.5,0.7-1.7
		c2.7-2.6,7.3-5,2.4-12.3l7.6-12c0,0,1.4-1.3,1.6-4.7c0.8,0.1,2.1-0.1,2.6-3.3c-0.4-0.4-1.2-1.9-4.4,1.1c0,0-2.5,4.6-2.9,5.6
		c-0.2,0.4,0,0.8,0.3,1L255.4,48.4z"/>
	<path class="st0" d="M236.1,62c3-0.3,4.2-2.5,5.8-4.5s-0.3-3.1-0.6-3.1c0.1-0.3,0.2-0.5,0.2-0.5c1.6-0.2,1.2-2.4,3.5-5.4
		c2.1-2.8,6.5-2.4,8.3-1.4"/>
	<path class="st0" d="M235.8,61.7c-0.4,0-0.7-0.3-0.8-0.7l-0.6,0.1c0.1,0.4-0.5,1.3-1.7,2s-8.6,4.8-4.9,11.9"/>
	<path class="st1" d="M244.2,62c0,0-0.1-0.3-0.1-0.7c-2.4,0.6-3.2,6-6.8,4.9c-1.3-2.1,0.1-2.3,0.4-2.2s0.9,1-0.4,1.1
		c0,0.3,0,0.6,0.1,0.9c4-1.3,4.2-5.2,6.5-5c0.6,0,1,0.5,1,1c0,0.4-0.2,0.7-0.6,0.9c-0.3,0-0.5-0.2-0.5-0.4c0-0.3,0.2-0.5,0.4-0.5
		C244.1,62,244.1,62,244.2,62z"/>
	<path class="st1" d="M248.4,65.4c0,0,0.3,0,0.6,0c0.8,0.8-4.1,5.5-3,7.6c0.6,0.4,1.4,0.3,1.8-0.3c0.1-0.1,0.1-0.3,0.2-0.4
		c0.1-0.8-1.2-0.4-0.9,0.3c-0.2,0.1-0.5,0.3-0.8,0.4c-1.1-1.7,4.1-6.8,2.7-7.8c-1-0.6-1.6,0.6-1.1,0.8S248.4,65.4,248.4,65.4z"/>
	<path class="st1" d="M232.7,81.6c0.9-1.5,4.6-6.2,4.7-7.6s1.8-3.7,1.8-3.7s2.9,2.1,3.6,2.9c-1.5,1.6-1.8,2.2-4,3.2
		c-1.8,1.9-3.4,3.9-4.9,6C233.9,82.4,233.3,82,232.7,81.6z"/>
	<path class="st1" d="M264.3,35.7l-0.4,0.7l-1.1-1c0,0-1.4,1-1.6-1.2c0-1.6,2.6-1.1,2.1,0.5L264.3,35.7z"/>
	<path class="st1" d="M265.5,33.4l-0.4,0.6l-1.2-0.9c-0.3,0.2-0.8,0.2-1.1-0.1c-0.5-0.2-0.7-0.8-0.5-1.3c0-0.1,0.1-0.1,0.1-0.2
		c1.3-1.1,2.4,0.3,2,1L265.5,33.4z"/>
	<path class="st1" d="M267.5,34.3l0.9,0.7c0,0,0.2-0.3,0.7,0.1s0.9,1,0.7,1.4c-0.2,0.4-0.7,0.6-1.1,0.4c-0.1,0-0.1-0.1-0.2-0.1
		c-0.4-0.2-0.7-0.6-0.7-1.1c-0.2-0.1-0.3-0.2-0.5-0.3"/>
	<path class="st1" d="M267,36.6l0.9,0.7c0.2-0.2,0.6-0.3,0.8,0c0.1,0.1,0.1,0.2,0.2,0.3c0.5,0.8,0.6,1.7-0.3,1.8
		c-0.6,0.2-1.2-0.1-1.5-0.7c0-0.2,0-0.5,0.1-0.7c-0.2-0.2-0.4-0.3-0.6-0.5"/>
	<polygon class="st1" points="246.5,60.9 250,63.8 266,39 264,37.3 	"/>
</g>
<g>
	<path class="st1" d="M69.8,118.3c0,0.7,0,1.3,0,1.9c0,0.5,0,1,0.1,1.4s0.1,0.7,0.1,1s0.1,0.5,0.1,0.7v0.1h-3v-0.1
		c0.1-0.2,0.1-0.4,0.1-0.7s0.1-0.6,0.1-1s0.1-0.9,0.1-1.4c0-0.5,0-1.2,0-1.9V110c0-0.7,0-1.3,0-1.9c0-0.5,0-1-0.1-1.4
		c0-0.4-0.1-0.7-0.1-1s-0.1-0.5-0.1-0.7V105c0.7,0,1.4,0,2.1,0c0.7,0,1.4,0,2.1,0c0.7,0,1.3,0,1.9,0c0.6,0,1.2,0,1.7,0
		c0.5,0,0.9,0,1.2-0.1c0.3,0,0.6,0,0.7-0.1l-0.6,1.7c-0.3-0.1-0.6-0.1-1-0.2c-0.3-0.1-0.7-0.1-1.2-0.1c-0.5,0-1-0.1-1.6-0.1
		c-0.2,0-0.5,0-0.8,0c-0.3,0-0.6,0-0.9,0c-0.3,0-0.7,0-1.1,0.1v6.4c0.9,0,1.7,0,2.4-0.1s1.4-0.1,1.9-0.1c0.6-0.1,1.2-0.1,1.7-0.2
		l-0.4,1.8c-0.6-0.1-1.3-0.1-1.9-0.2c-0.6-0.1-1.2-0.1-1.8-0.2c-0.6,0-1.2-0.1-1.8-0.1V118.3z"/>
	<path class="st1" d="M78,116.4c0-1,0.2-1.9,0.6-2.8s0.9-1.6,1.5-2.2c0.7-0.6,1.4-1.1,2.3-1.5s1.8-0.5,2.9-0.5c1,0,1.9,0.2,2.8,0.5
		c0.9,0.3,1.7,0.8,2.3,1.4s1.2,1.4,1.6,2.2s0.6,1.9,0.6,3c0,0.9-0.2,1.8-0.5,2.6c-0.3,0.8-0.8,1.6-1.4,2.2c-0.6,0.6-1.4,1.2-2.3,1.5
		c-0.9,0.4-1.9,0.6-3.1,0.6c-1,0-1.9-0.2-2.8-0.5s-1.7-0.8-2.3-1.4c-0.7-0.6-1.2-1.4-1.6-2.2C78.2,118.4,78,117.5,78,116.4z
		 M85.6,122.6c0.6,0,1.2-0.1,1.8-0.4s1-0.6,1.4-1.1s0.7-1.1,0.9-1.7c0.2-0.7,0.3-1.4,0.3-2.3c0-1-0.1-1.9-0.3-2.7s-0.5-1.5-0.9-2.2
		c-0.4-0.6-0.9-1.1-1.6-1.4c-0.6-0.3-1.4-0.5-2.2-0.5c-0.6,0-1.2,0.1-1.8,0.4s-1,0.6-1.4,1.1s-0.7,1-0.9,1.7s-0.3,1.4-0.3,2.3
		c0,1,0.1,1.9,0.3,2.7c0.2,0.8,0.5,1.6,1,2.2c0.4,0.6,0.9,1.1,1.6,1.4C84,122.4,84.7,122.6,85.6,122.6z"/>
	<path class="st1" d="M105.6,114.8c0-0.8,0-1.4,0-2s0-1-0.1-1.4s-0.1-0.7-0.1-1c0-0.3-0.1-0.5-0.1-0.7v-0.1h1.9v0.1
		c-0.1,0.2-0.1,0.4-0.1,0.7s-0.1,0.6-0.1,1c0,0.4,0,0.9-0.1,1.5c0,0.6,0,1.2,0,2v3.6c0,0.9-0.1,1.7-0.4,2.3s-0.7,1.2-1.2,1.6
		c-0.5,0.4-1.1,0.7-1.8,0.9c-0.7,0.2-1.4,0.3-2.3,0.3c-0.8,0-1.6-0.1-2.3-0.3c-0.7-0.2-1.3-0.5-1.8-0.9s-0.9-0.9-1.2-1.5
		s-0.5-1.4-0.5-2.3v-3.7c0-0.8,0-1.4,0-2c0-0.6,0-1-0.1-1.5c0-0.4-0.1-0.8-0.1-1s-0.1-0.5-0.2-0.7v-0.1H98v0.1
		c-0.1,0.2-0.1,0.4-0.2,0.7c0,0.3-0.1,0.6-0.1,1s-0.1,0.9-0.1,1.4s0,1.2,0,2v3.8c0,0.8,0.1,1.4,0.3,1.9c0.2,0.5,0.5,0.9,0.9,1.2
		s0.8,0.5,1.3,0.6c0.5,0.1,1,0.2,1.5,0.2c0.5,0,1-0.1,1.5-0.2c0.5-0.1,0.9-0.3,1.3-0.6s0.7-0.7,0.9-1.2c0.2-0.5,0.3-1.1,0.3-1.9
		V114.8z"/>
	<path class="st1" d="M122.7,123.4h-0.5l-10.1-9.9v4.5c0,0.8,0,1.4,0,2s0,1.1,0,1.5c0,0.4,0.1,0.8,0.1,1s0.1,0.5,0.1,0.7v0.1h-1.9
		v-0.1c0.1-0.2,0.1-0.4,0.2-0.7s0.1-0.6,0.1-1c0-0.4,0-0.9,0.1-1.5s0-1.2,0-2v-3.2c0-0.8,0-1.4,0-2c0-0.6,0-1-0.1-1.5
		c0-0.4-0.1-0.8-0.1-1s-0.1-0.5-0.2-0.7v-0.1h0.8l10.1,10v-4.8c0-0.8,0-1.4,0-2c0-0.6,0-1,0-1.5c0-0.4,0-0.8-0.1-1s-0.1-0.5-0.1-0.7
		v-0.1h1.9v0.1c-0.1,0.2-0.1,0.4-0.1,0.7s-0.1,0.6-0.1,1c0,0.4,0,0.9-0.1,1.5c0,0.6,0,1.2,0,2V123.4z"/>
	<path class="st1" d="M126.3,109.6c0.2,0,0.4,0,0.6,0c0.2,0,0.3,0,0.4,0s0.2,0,0.3,0c0.1,0,0.3,0,0.6,0c0.3,0,0.6,0,1,0
		c0.4,0,0.8,0,1.2,0c0.4,0,0.8,0,1.2,0c1,0,1.9,0.1,2.8,0.3s1.7,0.6,2.4,1.1c0.7,0.5,1.2,1.2,1.6,2c0.4,0.8,0.6,1.9,0.6,3.1
		c0,1.3-0.2,2.5-0.7,3.4s-1.1,1.7-1.9,2.3c-0.8,0.6-1.7,1-2.7,1.3c-1,0.3-2.1,0.4-3.3,0.4c-0.3,0-0.6,0-1,0s-0.8,0-1.2-0.1
		c-0.4,0-0.8,0-1.2-0.1s-0.7,0-0.9,0v-0.1c0.1-0.2,0.1-0.4,0.2-0.7s0.1-0.6,0.1-1c0-0.4,0.1-0.9,0.1-1.5s0-1.2,0-2v-3.2
		c0-0.8,0-1.4,0-2s0-1.1-0.1-1.5s-0.1-0.8-0.1-1S126.4,109.8,126.3,109.6L126.3,109.6z M128.9,110.5c0,0.7,0,1.4,0,2
		c0,0.3,0,0.6,0,0.9c0,0.3,0,0.6,0,0.9s0,0.6,0,0.8c0,0.3,0,0.5,0,0.7c0,0.4,0,0.9,0,1.5c0,0.6,0,1.2,0,1.8s0,1.2,0,1.8
		c0,0.6,0,1.1,0.1,1.5c0.1,0,0.2,0,0.3,0c0.1,0,0.3,0,0.4,0c0.1,0,0.3,0,0.4,0c0.1,0,0.3,0,0.4,0c0.5,0,0.9,0,1.4-0.1
		s0.9-0.2,1.4-0.3c0.4-0.2,0.9-0.4,1.3-0.7s0.7-0.7,1-1.1c0.3-0.5,0.5-1,0.7-1.6c0.2-0.6,0.2-1.4,0.2-2.3c0-1.9-0.5-3.4-1.4-4.4
		s-2.3-1.6-4.1-1.6c-0.2,0-0.4,0-0.6,0s-0.4,0-0.6,0c-0.2,0-0.4,0-0.6,0S129.1,110.5,128.9,110.5z"/>
	<path class="st1" d="M150.1,118.9c-0.2,0-0.5,0-0.9,0s-0.7,0-1.1,0s-0.8,0-1.3,0s-0.8,0-1.2,0c-0.4,0-0.7,0-1.1,0
		c-0.3,0-0.6,0-0.7,0l-0.5,1c-0.2,0.4-0.4,0.8-0.5,1.1c-0.1,0.3-0.3,0.6-0.4,0.8c-0.1,0.2-0.2,0.4-0.2,0.6c0,0.2-0.1,0.3-0.1,0.5
		c0,0.1,0,0.2,0,0.2c0,0,0,0.1,0,0.1v0.1H140v-0.1c0.1-0.1,0.2-0.2,0.3-0.4c0.1-0.2,0.3-0.4,0.4-0.7s0.3-0.6,0.5-1s0.4-0.7,0.6-1.1
		l5.2-10.7h1L153,120c0.2,0.4,0.4,0.8,0.6,1.2c0.2,0.4,0.4,0.7,0.6,1c0.2,0.3,0.3,0.5,0.4,0.7c0.1,0.2,0.2,0.3,0.3,0.3v0.1h-3.2
		c0-0.1,0-0.1,0-0.2c0-0.1,0-0.1,0-0.2c0-0.2,0-0.4-0.1-0.7c-0.1-0.3-0.2-0.5-0.3-0.8c-0.1-0.3-0.2-0.5-0.4-0.8
		c-0.1-0.3-0.2-0.5-0.3-0.6L150.1,118.9z M144.3,118h0.8c0.4,0,0.7,0,1.1,0c0.4,0,0.8,0,1.2,0s0.8,0,1.2,0c0.4,0,0.7,0,1,0l-2.6-5.6
		L144.3,118z"/>
	<path class="st1" d="M159.2,110.5c-0.8,0-1.5,0-2.1,0.1c-0.6,0.1-1.2,0.1-1.6,0.2c-0.5,0.1-1,0.2-1.4,0.3l0.3-1.6
		c0.1,0,0.3,0,0.6,0c0.3,0,0.6,0,0.9,0c0.3,0,0.6,0,0.9,0c0.3,0,0.5,0,0.6,0h6c0.1,0,0.3,0,0.6,0c0.3,0,0.6,0,0.9,0
		c0.3,0,0.6,0,0.9,0c0.3,0,0.5,0,0.6,0l0.3,1.6c-0.4-0.1-0.9-0.2-1.4-0.3c-0.4-0.1-1-0.1-1.6-0.2c-0.6-0.1-1.3-0.1-2.1-0.1v7.5
		c0,0.8,0,1.4,0,2c0,0.6,0,1.1,0.1,1.5c0,0.4,0.1,0.8,0.1,1c0,0.3,0.1,0.5,0.2,0.7v0.1h-2.9v-0.1c0.1-0.2,0.1-0.4,0.2-0.7
		c0-0.3,0.1-0.6,0.1-1c0-0.4,0.1-0.9,0.1-1.5c0-0.6,0-1.2,0-2V110.5z"/>
	<path class="st1" d="M168.7,114.8c0-0.8,0-1.4,0-2c0-0.6,0-1-0.1-1.5c0-0.4-0.1-0.8-0.1-1s-0.1-0.5-0.2-0.7v-0.1h2.9v0.1
		c-0.1,0.2-0.1,0.4-0.2,0.7c0,0.3-0.1,0.6-0.1,1c0,0.4-0.1,0.9-0.1,1.5c0,0.6,0,1.2,0,2v3.2c0,0.8,0,1.4,0,2c0,0.6,0,1.1,0.1,1.5
		c0,0.4,0.1,0.8,0.1,1c0,0.3,0.1,0.5,0.2,0.7v0.1h-2.9v-0.1c0.1-0.2,0.1-0.4,0.2-0.7s0.1-0.6,0.1-1c0-0.4,0.1-0.9,0.1-1.5
		c0-0.6,0-1.2,0-2V114.8z"/>
	<path class="st1" d="M174.1,116.4c0-1,0.2-1.9,0.6-2.8c0.4-0.9,0.9-1.6,1.5-2.2c0.7-0.6,1.4-1.1,2.3-1.5s1.8-0.5,2.9-0.5
		c1,0,1.9,0.2,2.8,0.5c0.9,0.3,1.7,0.8,2.3,1.4c0.7,0.6,1.2,1.4,1.6,2.2s0.6,1.9,0.6,3c0,0.9-0.2,1.8-0.5,2.6
		c-0.3,0.8-0.8,1.6-1.4,2.2c-0.6,0.6-1.4,1.2-2.3,1.5c-0.9,0.4-1.9,0.6-3.1,0.6c-1,0-1.9-0.2-2.8-0.5s-1.7-0.8-2.3-1.4
		c-0.7-0.6-1.2-1.4-1.6-2.2C174.3,118.4,174.1,117.5,174.1,116.4z M181.6,122.6c0.6,0,1.2-0.1,1.8-0.4s1-0.6,1.4-1.1
		c0.4-0.5,0.7-1.1,0.9-1.7c0.2-0.7,0.3-1.4,0.3-2.3c0-1-0.1-1.9-0.3-2.7c-0.2-0.8-0.5-1.5-0.9-2.2c-0.4-0.6-0.9-1.1-1.6-1.4
		c-0.6-0.3-1.4-0.5-2.2-0.5c-0.6,0-1.2,0.1-1.8,0.4s-1,0.6-1.4,1.1c-0.4,0.5-0.7,1-0.9,1.7s-0.3,1.4-0.3,2.3c0,1,0.1,1.9,0.3,2.7
		c0.2,0.8,0.5,1.6,1,2.2c0.4,0.6,0.9,1.1,1.6,1.4C180.1,122.4,180.8,122.6,181.6,122.6z"/>
	<path class="st1" d="M203.4,123.4h-0.5l-10.1-9.9v4.5c0,0.8,0,1.4,0,2s0,1.1,0,1.5c0,0.4,0.1,0.8,0.1,1c0,0.3,0.1,0.5,0.1,0.7v0.1
		h-1.9v-0.1c0.1-0.2,0.1-0.4,0.2-0.7s0.1-0.6,0.1-1c0-0.4,0-0.9,0.1-1.5s0-1.2,0-2v-3.2c0-0.8,0-1.4,0-2c0-0.6,0-1-0.1-1.5
		c0-0.4-0.1-0.8-0.1-1s-0.1-0.5-0.2-0.7v-0.1h0.8l10.1,10v-4.8c0-0.8,0-1.4,0-2c0-0.6,0-1,0-1.5c0-0.4,0-0.8-0.1-1s-0.1-0.5-0.1-0.7
		v-0.1h1.9v0.1c-0.1,0.2-0.1,0.4-0.1,0.7c0,0.3-0.1,0.6-0.1,1c0,0.4,0,0.9-0.1,1.5c0,0.6,0,1.2,0,2V123.4z"/>
</g>
<g>
	<path class="st1" d="M56.4,78.5L56.4,78.5c0,0.1,0,0.2,0,0.2s0,0.2,0,0.2c0,0.3,0,0.6,0.1,0.9c0.1,0.3,0.2,0.7,0.4,1.2l5.6,12.7
		l5.4-12.6c0.1-0.3,0.3-0.7,0.4-1s0.2-0.7,0.2-1.1c0-0.1,0-0.2,0-0.3c0-0.1,0-0.1-0.1-0.2v-0.1h2.6v0.1c-0.2,0.2-0.4,0.4-0.6,0.9
		S70,80.4,69.7,81l-7.3,16.1h-1l-6.9-15.5c-0.2-0.4-0.3-0.7-0.5-1.1s-0.3-0.6-0.5-0.9c-0.2-0.3-0.3-0.5-0.4-0.7s-0.2-0.3-0.2-0.4
		v-0.1H56.4z"/>
	<path class="st1" d="M72.4,88.3c0-0.8,0-1.4,0-2c0-0.6,0-1-0.1-1.5c0-0.4-0.1-0.8-0.1-1S72,83.3,72,83.2v-0.1h2.9v0.1
		c-0.1,0.2-0.1,0.4-0.2,0.7s-0.1,0.6-0.1,1c0,0.4-0.1,0.9-0.1,1.5c0,0.6,0,1.2,0,2v3.2c0,0.8,0,1.4,0,2s0,1.1,0.1,1.5
		c0,0.4,0.1,0.8,0.1,1s0.1,0.5,0.2,0.7v0.1H72v-0.1c0.1-0.2,0.1-0.4,0.2-0.7s0.1-0.6,0.1-1c0-0.4,0.1-0.9,0.1-1.5s0-1.2,0-2V88.3z"
		/>
	<path class="st1" d="M81,95.8c0.8,0,1.5,0,2.2-0.1c0.7-0.1,1.2-0.1,1.7-0.2c0.6-0.1,1.1-0.2,1.6-0.3l-0.3,1.7c-0.1,0-0.3,0-0.6,0
		c-0.3,0-0.6,0-0.9,0c-0.3,0-0.6,0-0.9,0c-0.3,0-0.5,0-0.6,0h-4.9v-0.1c0.1-0.2,0.1-0.4,0.2-0.7s0.1-0.6,0.1-1
		c0-0.4,0.1-0.9,0.1-1.5s0-1.2,0-2v-3.2c0-0.8,0-1.4,0-2c0-0.6,0-1-0.1-1.5c0-0.4-0.1-0.8-0.1-1s-0.1-0.5-0.2-0.7v-0.1h2.9v0.1
		c-0.1,0.2-0.1,0.4-0.2,0.7s-0.1,0.6-0.1,1c0,0.4-0.1,0.9-0.1,1.5c0,0.6,0,1.2,0,2V95.8z"/>
	<path class="st1" d="M91.3,95.8c0.8,0,1.5,0,2.2-0.1c0.7-0.1,1.2-0.1,1.7-0.2c0.6-0.1,1.1-0.2,1.6-0.3l-0.3,1.7c-0.1,0-0.3,0-0.6,0
		c-0.3,0-0.6,0-0.9,0c-0.3,0-0.6,0-0.9,0c-0.3,0-0.5,0-0.6,0h-4.9v-0.1c0.1-0.2,0.1-0.4,0.2-0.7s0.1-0.6,0.1-1
		c0-0.4,0.1-0.9,0.1-1.5s0-1.2,0-2v-3.2c0-0.8,0-1.4,0-2c0-0.6,0-1-0.1-1.5c0-0.4-0.1-0.8-0.1-1s-0.1-0.5-0.2-0.7v-0.1h2.9v0.1
		c-0.1,0.2-0.1,0.4-0.2,0.7s-0.1,0.6-0.1,1c0,0.4-0.1,0.9-0.1,1.5c0,0.6,0,1.2,0,2V95.8z"/>
	<path class="st1" d="M107.3,92.5c-0.2,0-0.5,0-0.9,0s-0.7,0-1.1,0s-0.8,0-1.3,0s-0.8,0-1.2,0c-0.4,0-0.7,0-1.1,0
		c-0.3,0-0.6,0-0.7,0l-0.5,1c-0.2,0.4-0.4,0.8-0.5,1.1c-0.1,0.3-0.3,0.6-0.4,0.8s-0.2,0.4-0.2,0.6c0,0.2-0.1,0.3-0.1,0.5
		c0,0.1,0,0.2,0,0.2c0,0,0,0.1,0,0.1v0.1h-2.2v-0.1c0.1-0.1,0.2-0.2,0.3-0.4c0.1-0.2,0.3-0.4,0.4-0.7s0.3-0.6,0.5-1s0.4-0.7,0.6-1.1
		l5.2-10.7h1l5.1,10.7c0.2,0.4,0.4,0.8,0.6,1.2s0.4,0.7,0.6,1c0.2,0.3,0.3,0.5,0.4,0.7c0.1,0.2,0.2,0.3,0.3,0.3v0.1h-3.2
		c0-0.1,0-0.1,0-0.2c0-0.1,0-0.1,0-0.2c0-0.2,0-0.4-0.1-0.7s-0.2-0.5-0.3-0.8c-0.1-0.3-0.2-0.5-0.4-0.8s-0.2-0.5-0.3-0.6L107.3,92.5
		z M101.5,91.5h0.8c0.4,0,0.7,0,1.1,0c0.4,0,0.8,0,1.2,0s0.8,0,1.2,0c0.4,0,0.7,0,1,0l-2.6-5.6L101.5,91.5z"/>
	<path class="st1" d="M129.2,81.4h-0.3c-0.1-0.2-0.2-0.4-0.3-0.7s-0.3-0.5-0.6-0.7c-0.2-0.2-0.5-0.4-0.9-0.5s-0.7-0.2-1.2-0.2
		c-0.4,0-0.8,0.1-1.1,0.2s-0.6,0.3-0.8,0.5s-0.4,0.5-0.5,0.8s-0.2,0.7-0.2,1c0,0.6,0.2,1.2,0.5,1.7c0.3,0.6,0.8,1.1,1.3,1.6
		s1.1,1.1,1.7,1.6s1.2,1.1,1.7,1.7c0.5,0.6,0.9,1.2,1.3,1.8c0.3,0.6,0.5,1.3,0.5,2.1c0,0.5-0.1,1.1-0.3,1.7
		c-0.2,0.6-0.5,1.1-0.9,1.5s-0.9,0.8-1.5,1.1c-0.6,0.3-1.4,0.4-2.2,0.4c-0.5,0-0.9,0-1.4-0.1c-0.4-0.1-0.8-0.2-1.2-0.3
		c-0.4-0.1-0.7-0.3-1-0.4s-0.5-0.3-0.7-0.4l0.3-2.8h0.3c0.1,0.4,0.2,0.8,0.5,1.1c0.2,0.4,0.5,0.7,0.8,1c0.3,0.3,0.7,0.5,1.1,0.7
		c0.4,0.2,0.8,0.2,1.3,0.2c0.4,0,0.8-0.1,1.2-0.2c0.3-0.1,0.6-0.3,0.9-0.5c0.2-0.2,0.4-0.5,0.6-0.8s0.2-0.7,0.2-1.1
		c0-0.5-0.1-1-0.3-1.5c-0.2-0.5-0.5-0.9-0.8-1.3s-0.7-0.8-1.1-1.2s-0.8-0.8-1.2-1.1c-0.4-0.4-0.8-0.8-1.2-1.2s-0.8-0.8-1.1-1.3
		c-0.3-0.5-0.6-1-0.8-1.5c-0.2-0.5-0.3-1.1-0.3-1.7c0-0.7,0.1-1.3,0.4-1.8c0.3-0.5,0.6-1,1-1.4s0.9-0.7,1.5-0.9s1.1-0.3,1.7-0.3
		c0.4,0,0.8,0,1.2,0.1s0.7,0.1,1,0.2c0.3,0.1,0.5,0.2,0.7,0.3s0.4,0.2,0.5,0.2L129.2,81.4z"/>
	<path class="st1" d="M133.7,88.3c0-0.8,0-1.4,0-2c0-0.6,0-1-0.1-1.5c0-0.4-0.1-0.8-0.1-1s-0.1-0.5-0.2-0.7v-0.1h2.9v0.1
		c-0.1,0.2-0.1,0.4-0.2,0.7s-0.1,0.6-0.1,1c0,0.4-0.1,0.9-0.1,1.5c0,0.6,0,1.2,0,2v3.2c0,0.8,0,1.4,0,2s0,1.1,0.1,1.5
		c0,0.4,0.1,0.8,0.1,1s0.1,0.5,0.2,0.7v0.1h-2.9v-0.1c0.1-0.2,0.1-0.4,0.2-0.7s0.1-0.6,0.1-1c0-0.4,0.1-0.9,0.1-1.5s0-1.2,0-2V88.3z
		"/>
	<path class="st1" d="M152,96.9h-0.5L141.4,87v4.5c0,0.8,0,1.4,0,2c0,0.6,0,1.1,0,1.5c0,0.4,0.1,0.8,0.1,1s0.1,0.5,0.1,0.7v0.1h-1.9
		v-0.1c0.1-0.2,0.1-0.4,0.2-0.7c0-0.3,0.1-0.6,0.1-1c0-0.4,0-0.9,0.1-1.5c0-0.6,0-1.2,0-2v-3.2c0-0.8,0-1.4,0-2c0-0.6,0-1-0.1-1.5
		c0-0.4-0.1-0.8-0.1-1c0-0.3-0.1-0.5-0.2-0.7v-0.1h0.8l10.1,10v-4.8c0-0.8,0-1.4,0-2c0-0.6,0-1,0-1.5c0-0.4,0-0.8-0.1-1
		c0-0.3-0.1-0.5-0.1-0.7v-0.1h1.9v0.1c-0.1,0.2-0.1,0.4-0.1,0.7s-0.1,0.6-0.1,1c0,0.4,0,0.9-0.1,1.5c0,0.6,0,1.2,0,2V96.9z"/>
	<path class="st1" d="M158.2,91.5c0,0.8,0,1.4,0,2s0,1.1,0.1,1.5c0,0.4,0.1,0.8,0.1,1s0.1,0.5,0.2,0.7v0.1h-2.9v-0.1
		c0.1-0.2,0.1-0.4,0.2-0.7c0-0.3,0.1-0.6,0.1-1c0-0.4,0.1-0.9,0.1-1.5c0-0.6,0-1.2,0-2v-3.2c0-0.8,0-1.4,0-2c0-0.6,0-1-0.1-1.5
		c0-0.4-0.1-0.8-0.1-1c0-0.3-0.1-0.5-0.2-0.7v-0.1c0.5,0,1.1,0,1.7,0c0.6,0,1.2,0,1.7,0c0.6,0,1.1,0,1.6,0c0.5,0,1,0,1.4,0
		c0.4,0,0.8,0,1.1,0c0.3,0,0.5,0,0.6-0.1l-0.5,1.4c-0.2-0.1-0.5-0.1-0.8-0.2c-0.2,0-0.6-0.1-0.9-0.1c-0.4,0-0.8-0.1-1.2-0.1
		c-0.2,0-0.4,0-0.6,0c-0.2,0-0.5,0-0.7,0c-0.3,0-0.5,0-0.8,0.1v4.6c0.7,0,1.3,0,1.9-0.1c0.6,0,1.1-0.1,1.5-0.1
		c0.5,0,0.9-0.1,1.3-0.1l-0.3,1.5c-0.5-0.1-1-0.1-1.5-0.2c-0.4,0-0.9-0.1-1.4-0.1c-0.5,0-1-0.1-1.4-0.1V91.5z"/>
	<path class="st1" d="M165.2,89.9c0-1,0.2-1.9,0.6-2.8c0.4-0.9,0.9-1.6,1.5-2.2c0.7-0.6,1.4-1.1,2.3-1.5s1.8-0.5,2.9-0.5
		c1,0,1.9,0.2,2.8,0.5c0.9,0.3,1.7,0.8,2.3,1.4c0.7,0.6,1.2,1.4,1.6,2.2s0.6,1.9,0.6,3c0,0.9-0.2,1.8-0.5,2.6
		c-0.3,0.8-0.8,1.6-1.4,2.2c-0.6,0.6-1.4,1.2-2.3,1.5c-0.9,0.4-1.9,0.6-3.1,0.6c-1,0-1.9-0.2-2.8-0.5s-1.7-0.8-2.3-1.4
		c-0.7-0.6-1.2-1.4-1.6-2.2C165.4,92,165.2,91,165.2,89.9z M172.7,96.1c0.6,0,1.2-0.1,1.8-0.4s1-0.6,1.4-1.1
		c0.4-0.5,0.7-1.1,0.9-1.7c0.2-0.7,0.3-1.4,0.3-2.3c0-1-0.1-1.9-0.3-2.7c-0.2-0.8-0.5-1.5-0.9-2.2c-0.4-0.6-0.9-1.1-1.6-1.4
		c-0.6-0.3-1.4-0.5-2.2-0.5c-0.6,0-1.2,0.1-1.8,0.4s-1,0.6-1.4,1.1c-0.4,0.5-0.7,1-0.9,1.7s-0.3,1.4-0.3,2.3c0,1,0.1,1.9,0.3,2.7
		c0.2,0.8,0.5,1.6,1,2.2c0.4,0.6,0.9,1.1,1.6,1.4C171.2,95.9,171.9,96.1,172.7,96.1z"/>
	<path class="st1" d="M194.5,96.9H194L183.9,87v4.5c0,0.8,0,1.4,0,2s0,1.1,0,1.5c0,0.4,0.1,0.8,0.1,1c0,0.3,0.1,0.5,0.1,0.7v0.1
		h-1.9v-0.1c0.1-0.2,0.1-0.4,0.2-0.7s0.1-0.6,0.1-1c0-0.4,0-0.9,0.1-1.5s0-1.2,0-2v-3.2c0-0.8,0-1.4,0-2c0-0.6,0-1-0.1-1.5
		c0-0.4-0.1-0.8-0.1-1s-0.1-0.5-0.2-0.7v-0.1h0.8l10.1,10v-4.8c0-0.8,0-1.4,0-2c0-0.6,0-1,0-1.5c0-0.4,0-0.8-0.1-1s-0.1-0.5-0.1-0.7
		v-0.1h1.9v0.1c-0.1,0.2-0.1,0.4-0.1,0.7c0,0.3-0.1,0.6-0.1,1c0,0.4,0,0.9-0.1,1.5c0,0.6,0,1.2,0,2V96.9z"/>
	<path class="st1" d="M198.6,88.3c0-0.8,0-1.4,0-2c0-0.6,0-1-0.1-1.5c0-0.4-0.1-0.8-0.1-1c0-0.3-0.1-0.5-0.2-0.7v-0.1h2.9v0.1
		c-0.1,0.2-0.1,0.4-0.2,0.7c0,0.3-0.1,0.6-0.1,1c0,0.4-0.1,0.9-0.1,1.5c0,0.6,0,1.2,0,2v3.2c0,0.8,0,1.4,0,2s0,1.1,0.1,1.5
		c0,0.4,0.1,0.8,0.1,1c0,0.3,0.1,0.5,0.2,0.7v0.1h-2.9v-0.1c0.1-0.2,0.1-0.4,0.2-0.7c0-0.3,0.1-0.6,0.1-1c0-0.4,0.1-0.9,0.1-1.5
		s0-1.2,0-2V88.3z"/>
	<path class="st1" d="M213,92.5c-0.2,0-0.5,0-0.9,0c-0.3,0-0.7,0-1.1,0s-0.8,0-1.3,0s-0.8,0-1.2,0c-0.4,0-0.7,0-1.1,0
		c-0.3,0-0.6,0-0.7,0l-0.5,1c-0.2,0.4-0.4,0.8-0.5,1.1c-0.1,0.3-0.3,0.6-0.4,0.8s-0.2,0.4-0.2,0.6c0,0.2-0.1,0.3-0.1,0.5
		c0,0.1,0,0.2,0,0.2c0,0,0,0.1,0,0.1v0.1h-2.2v-0.1c0.1-0.1,0.2-0.2,0.3-0.4c0.1-0.2,0.3-0.4,0.4-0.7c0.2-0.3,0.3-0.6,0.5-1
		c0.2-0.4,0.4-0.7,0.6-1.1l5.2-10.7h1l5.1,10.7c0.2,0.4,0.4,0.8,0.6,1.2c0.2,0.4,0.4,0.7,0.6,1c0.2,0.3,0.3,0.5,0.4,0.7
		c0.1,0.2,0.2,0.3,0.3,0.3v0.1h-3.2c0-0.1,0-0.1,0-0.2c0-0.1,0-0.1,0-0.2c0-0.2,0-0.4-0.1-0.7c-0.1-0.3-0.2-0.5-0.3-0.8
		c-0.1-0.3-0.2-0.5-0.4-0.8c-0.1-0.3-0.2-0.5-0.3-0.6L213,92.5z M207.2,91.5h0.8c0.4,0,0.7,0,1.1,0c0.4,0,0.8,0,1.2,0s0.8,0,1.2,0
		c0.4,0,0.7,0,1,0l-2.6-5.6L207.2,91.5z"/>
</g>
</svg>
